<?xml version="1.0" encoding="utf-8"?>
<!-- Generator: Adobe Illustrator 26.3.1, SVG Export Plug-In . SVG Version: 6.00 Build 0)  -->
<svg version="1.1" id="Layer_1" xmlns="http://www.w3.org/2000/svg" xmlns:xlink="http://www.w3.org/1999/xlink" x="0px" y="0px"
	 viewBox="0 0 240 199.2" style="enable-background:new 0 0 240 199.2;" xml:space="preserve">
<style type="text/css">
	.st0{fill:#3F3D56;}
	.st1{fill:#FFFFFF;}
	.st2{fill:#CCCCCC;}
	.st3{fill:#6C63FF;}
	.st4{fill:#E6E6E6;}
	.st5{fill:#FEB8B8;}
	.st6{opacity:0.1;enable-background:new    ;}
	.st7{fill:#2F2E41;}
	.st8{fill:#A0616A;}
	.st9{fill:#CBCBCB;}
</style>
<g id="a21d7543-5d63-4074-9205-f06443f25821">
	<path id="e7fbd27d-1c9f-4a62-8148-82b039061e33-2533" class="st0" d="M114.5,47.3h1.1v-30c0-9.6,7.8-17.4,17.4-17.4h63.5
		c9.6,0,17.4,7.8,17.4,17.4v164.5c0,9.6-7.8,17.4-17.4,17.4h-63.5c-9.6,0-17.4-7.8-17.4-17.4V68.7h-1.1V47.3z"/>
	<path id="f17a8b50-0b0b-47cc-a298-09bd9c200760-2534" class="st1" d="M132.2,4.5h8.3c-1.3,3.1,0.2,6.7,3.4,8
		c0.7,0.3,1.5,0.5,2.3,0.5h36.4c3.4,0,6.2-2.8,6.2-6.2c0-0.8-0.2-1.6-0.5-2.3h7.7c7.2,0,13,5.8,13,13v164.3c0,7.2-5.8,13-13,13l0,0
		h-63.8c-7.2,0-13-5.8-13-13l0,0l0,0V17.5C119.3,10.3,125.1,4.5,132.2,4.5L132.2,4.5L132.2,4.5L132.2,4.5z"/>
	
		<ellipse id="b774a52b-05ed-4103-aa7f-8d237ff42447" transform="matrix(0.1602 -0.9871 0.9871 0.1602 2.6347 277.1084)" class="st2" cx="164.2" cy="137" rx="14.7" ry="14.7"/>
	
		<ellipse id="fbab1c94-d57e-450f-bea0-7a43d993a063" transform="matrix(0.1602 -0.9871 0.9871 0.1602 2.635 277.1081)" class="st1" cx="164.2" cy="137" rx="14" ry="14"/>
	<path id="b77f917d-34fd-4c03-b75e-73ab726170c9-2535" class="st3" d="M161.8,143.1l-4.4-5.7l2.6-2l2.1,2.7l7-7.4l2.4,2.2
		L161.8,143.1z"/>
	<path id="e471b633-d198-47ad-a91d-7bccaed22689-2536" class="st3" d="M128.7,165.6l8.5-4v2.3h19.9v3.4h-19.9v2.3L128.7,165.6z"/>
	<path id="bad1768d-f28d-4d6c-9720-78225c848e2e-2537" class="st3" d="M197.7,165.6l-8.5-4v2.3h-19.9v3.4h19.9v2.3L197.7,165.6z"/>
	<rect id="a0757271-aa13-4c39-883b-681fb07b8358" x="129.6" y="30.8" class="st4" width="68.9" height="72.4"/>
	<g id="bd4436a9-ab86-4abe-9bd7-11c3c7af63e2">
		<path id="b3e8bf17-9a50-43a4-bd93-c09f4fce21e6-2538" class="st4" d="M154.7,92l-5.2,8.1h3.8L154.7,92z"/>
		<circle id="bfa771e6-4776-4e65-99f0-8c22976fc45f" class="st5" cx="160.8" cy="46.9" r="7.6"/>
		<path id="bc00fcfd-5730-439e-98b0-f69b404d7a35-2539" class="st0" d="M169.2,55.1c0,0-3.5,1.2-5.2,3.2c-1.7,2-5.8,2.3-5.8,2.3
			s-3.6,2-4.9,5.5c-1.4,3.7-0.6,9,0,10.2c1.2,2.3,1.2,8.1,1.2,8.1l-1.5,13.4c0,0-5.2,4.9-1.2,5.5c4.1,0.6,11.3-0.3,15.7,0
			c4.4,0.3,9.3,0.9,7.8-2s-3.2-4.9-1.5-10.7c1.4-4.5,1.3-21.5,1.2-28.7c0-2-1.1-3.9-2.8-4.9L169.2,55.1z"/>
		<path id="e078b431-7fa2-4ffb-9128-b5cbabb89faa-2540" class="st5" d="M157.9,99.5c0,0-1.3,2.9-1.5,4.6c-1,13.5,6.4,0,6.4,0v-2.3
			L157.9,99.5z"/>
		<path id="a9e0b218-7fb2-4594-9961-d5df86528afc-2541" class="st6" d="M165,64.2l0.9,17.7L157.4,99l-1.4-0.5l8.7-16L165,64.2z"/>
		<path id="a63b4032-c365-49f7-ae5c-3b8abdfa447a-2542" class="st0" d="M171.8,58.8l2.2-0.4c0,0,6.5,4.8,4.5,14.4
			c-2,9.6-11,24.1-11,24.1s-2,2.6-2.6,3.2c-0.6,0.6-1.7,0-1.2,0.9c0.6,0.9-0.9,1.5-0.9,1.5s-6.4,0-5.8-2.3
			c0.6-2.3,10.5-18.9,10.5-18.9L166,65.8C166,65.8,164.8,58.3,171.8,58.8z"/>
		<path id="a4f11c4e-c37a-4dd8-a35d-ae47dc8b8240-2543" class="st6" d="M174.6,85.7v-2l-9.9,16.3L174.6,85.7z"/>
		<path id="a203bd83-525b-4951-b824-caeea29adbfe-2544" class="st7" d="M155.4,39.9l-1.2-0.5c0,0,2.6-2.9,6.2-2.6l-1-1.1
			c0,0,2.5-1,4.8,1.6c1.2,1.4,2.6,3,3.4,4.8h1.3l-0.6,1.2l2,1.2l-2-0.2c0.2,1.1,0.1,2.2-0.2,3.2l0.1,1c0,0-2.3-3.6-2.3-4.1v1.2
			c0,0-1.2-1.1-1.2-1.9l-0.7,0.9l-0.3-1.4l-4.2,1.4l0.7-1.1l-2.6,0.4l1-1.4c0,0-3,1.6-3.1,3s-1.6,3.1-1.6,3.1l-0.7-1.2
			C153.1,47.4,152.1,41.8,155.4,39.9z"/>
	</g>
	<g id="a0d1e1aa-6ffe-40d9-a9d3-85056dcc97e2">
		<path id="b29d9842-97e3-494c-ae66-73d780169e6a-2545" class="st7" d="M66.2,74.2c-1-3.1-3.1-5.8-6.1-6.9c-3-1-8.3-0.1-9.7,2.8
			c-2,4.1-1.1,9.2,0,13.7c0.6,0,1.1-0.1,1.7-0.1l0.8-2.7v2.7c4.5-0.1,9.1-0.1,13.8,0C67.1,80.6,67.2,77.3,66.2,74.2z"/>
		<path id="a2d5c4ab-10e8-4119-8285-6e98d5f2924d-2546" class="st8" d="M25.2,190.5l3.8,1.6l7.9-13.8l-5.5-2.3L25.2,190.5z"/>
		<path id="b5ab1e96-94a7-45b9-ab1b-fa72a3320944-2547" class="st7" d="M22.7,193.7l12.1,5.1l0.1-0.2c1.1-2.6-0.1-5.6-2.7-6.7l0,0
			l-7.4-3.1L22.7,193.7z"/>
		<path id="a7fb9385-bd6a-4542-80c3-fc955e859ae8-2548" class="st8" d="M80.3,125.5c0.9-1.3,0.6-3-0.7-3.9c-0.1-0.1-0.3-0.2-0.4-0.2
			L71.1,97l-5.4,2.9l9.6,23.1c-0.6,1.5,0.2,3.1,1.6,3.7C78.2,127,79.6,126.6,80.3,125.5L80.3,125.5z"/>
		<path id="ac8b856a-5bfa-484c-b494-50247cbd55c2-2549" class="st8" d="M70.3,194.9h4.1l1.9-15.7h-6L70.3,194.9z"/>
		<path id="bf312fd5-7892-49a0-80f0-ca7b5de9c452-2550" class="st7" d="M69.3,198.8h13.1v-0.2c0-2.8-2.3-5.1-5.1-5.1h-8L69.3,198.8z
			"/>
		<path id="b136a9ae-9224-457c-984e-a201d5628fb8-2551" class="st8" d="M54,105.4l-0.9,2.4l0.2,2.4L71,108l-0.6-2l-2-2.4L54,105.4z"
			/>
		<circle id="f094d8dd-8e3f-4b13-becb-dde723bd08d3" class="st8" cx="59.7" cy="77.4" r="6.5"/>
		<path id="b5e48a2a-ea39-41a2-9198-5a39e8551573-2552" class="st4" d="M53,108l17.6-1.9l0.8-2.5c0.2-0.3,2.5-3.5,2-6.7
			c-0.2-1.5-1.1-2.8-2.4-3.7l-4.3-5L62.9,86l-7.4-0.7l0,0l-6.7,1.5L48.8,99L53,108z"/>
		<path id="a6ca4a7f-9bf0-4dac-91b0-cdfc1c7b9469-2553" class="st4" d="M70.1,109.3l4.9-0.6l0-0.2c0-0.5-1.1-13.4-2.2-16.3
			c-1.1-3-6-3.9-6.2-4l-0.1,0l-1.1,0.7l3,9.4L70.1,109.3z"/>
		<path id="ab12339c-732c-43c0-9daa-a7ea979cb3b7-2554" class="st7" d="M52.8,110.2v4.1c0,0-4.7,6.2-2.2,10.9c0,0-5.5,10.2-5.8,13.9
			l-5.1,16.8c0,0-12.8,12.8-11.7,21.9l-0.7,2.9l8.4,3.7l1.8-2.6l14.2-24.5L63.7,135l2.2,26.3c0,0-1.5,20.5,2.6,22.6l0.4,3.3h8.5
			v-3.1c0,0,3.2-11.1,1.3-19.5l0.7-35.4c0,0-3.3-15-7.3-17.5l-1.5-3.7L52.8,110.2z"/>
		<path id="be13f11d-97fc-491e-ab8f-21e9fef4281a-2555" class="st8" d="M59.2,117.8c-0.1,0-0.3,0.1-0.4,0.1l-11.3-7.8l0.3-3.3l-5-1
			l-1,5.8c-0.2,1,0.3,1.9,1.2,2.4l14,6.9c0.1,1.6,1.6,2.8,3.1,2.6c1.6-0.1,2.8-1.6,2.6-3.1c-0.1-1.6-1.6-2.8-3.1-2.6
			C59.4,117.7,59.3,117.8,59.2,117.8L59.2,117.8z"/>
		<path id="a464f869-97dd-44e8-a8d0-b87fc98c85b8-2556" class="st4" d="M47.6,110.6l2.3-15.3l1.9-7.9L49,86.8
			c-0.1,0-2.4-0.8-4.2,0.4c-1.3,0.9-2.1,2.6-2.2,5.1l-0.7,17.5L47.6,110.6z"/>
		<path id="a303ed3a-027a-4219-a7cd-863d3eefc723-2557" class="st7" d="M64.1,68.9c-3.8-2.3-8.8-1.1-11.1,2.7
			c-0.8,1.3-1.2,2.8-1.2,4.4c3.6,0.2,7.4,0.2,11.2,0.2L64,74l0.5,2.2c1.2,0,2.3,0,3.5,0C68.1,73.3,66.6,70.5,64.1,68.9z"/>
	</g>
	<path id="fe23b7bc-1ca6-4ec5-9f56-67afc1ee089a-2558" class="st9" d="M0.6,199.2h238.7c0.3,0,0.6-0.2,0.6-0.3
		c0-0.2-0.3-0.3-0.6-0.3H0.6c-0.3,0-0.6,0.2-0.6,0.3C0,199.1,0.3,199.2,0.6,199.2z"/>
</g>
</svg>
