<?xml version="1.0" encoding="utf-8"?>
<!-- Generator: Adobe Illustrator 26.3.1, SVG Export Plug-In . SVG Version: 6.00 Build 0)  -->
<svg version="1.1" id="Layer_1" xmlns="http://www.w3.org/2000/svg" xmlns:xlink="http://www.w3.org/1999/xlink" x="0px" y="0px"
	 viewBox="0 0 240 188.4" style="enable-background:new 0 0 240 188.4;" xml:space="preserve">
<style type="text/css">
	.st0{fill:#F0F0F0;}
	.st1{fill:#3F3D56;}
	.st2{fill:#FFFFFF;}
	.st3{fill:#6C63FF;}
	.st4{fill:#2F2E41;}
</style>
<path id="b10fb2cf-c586-4c5f-9fbf-e678f5ffa3db-2531" class="st0" d="M218.5,172c-4.6,4.9-9.9,9.2-15.7,12.6
	c-0.1,0.1-0.3,0.2-0.4,0.2l-9.4-8.3c0.1-0.1,0.2-0.2,0.3-0.3c7-6.6,41.6-53,43.9-64.3C237.1,113,239.4,149.8,218.5,172z"/>
<path id="a32c10c7-75df-4179-a648-6a8d2a687209-2532" class="st0" d="M204.6,186.3c-0.2,0-0.4,0.1-0.5,0.1l-7-6.2
	c0.1,0,0.3-0.1,0.5-0.2c3-1.1,12-4.3,20.9-8c9.6-3.9,19.2-8.4,21.2-11.3C239.2,161.4,225.7,181.5,204.6,186.3z"/>
<path class="st1" d="M218.3,49.3h-1V21.9c0-8.8-7.1-15.9-15.9-15.9l0,0h-58.1c-8.8,0-15.9,7.1-15.9,15.9v150.4
	c0,8.8,7.1,15.9,15.9,15.9h0h58.1c8.8,0,15.9-7.1,15.9-15.9V68.9h1V49.3z"/>
<path class="st2" d="M214,22v150.2c0,6.5-5.3,11.8-11.8,11.8c0,0,0,0,0,0h-58.4c-6.5,0-11.8-5.3-11.8-11.8c0,0,0,0,0,0V22
	c0-6.5,5.3-11.8,11.8-11.8c0,0,0,0,0,0h7.1c-1.2,2.9,0.2,6.2,3.1,7.3c0.7,0.3,1.4,0.4,2.1,0.4h33.3c3.1,0,5.6-2.5,5.6-5.6
	c0-0.7-0.1-1.5-0.4-2.1h7.6C208.6,10.2,214,15.5,214,22C214,22,214,22,214,22z"/>
<path class="st0" d="M195.8,100.1h-51.3c-1.9,0-3.4-1.5-3.4-3.4V95c0-1.9,1.5-3.4,3.4-3.4h51.3c1.9,0,3.4,1.5,3.4,3.4v1.7
	C199.2,98.6,197.7,100.1,195.8,100.1z"/>
<path class="st0" d="M195.8,114.6h-51.3c-1.9,0-3.4-1.5-3.4-3.4v-1.7c0-1.9,1.5-3.4,3.4-3.4h51.3c1.9,0,3.4,1.5,3.4,3.4v1.7
	C199.2,113.1,197.7,114.6,195.8,114.6z"/>
<path class="st1" d="M198.4,96.8h-51.3c-2,0-3.6-1.6-3.6-3.6v-1.7c0-2,1.6-3.6,3.6-3.6h51.3c2,0,3.6,1.6,3.6,3.6v1.7
	C201.9,95.3,200.3,96.8,198.4,96.8z M147.1,88.7c-1.6,0-2.9,1.3-2.9,2.9v1.7c0,1.6,1.3,2.9,2.9,2.9h51.3c1.6,0,2.9-1.3,2.9-2.9v-1.7
	c0-1.6-1.3-2.9-2.9-2.9H147.1z"/>
<path class="st1" d="M198.4,111.4h-51.3c-2,0-3.6-1.6-3.6-3.6v-1.7c0-2,1.6-3.6,3.6-3.6h51.3c2,0,3.6,1.6,3.6,3.6v1.7
	C201.9,109.8,200.3,111.4,198.4,111.4z M147.1,103.3c-1.6,0-2.9,1.3-2.9,2.9v1.7c0,1.6,1.3,2.9,2.9,2.9h51.3c1.6,0,2.9-1.3,2.9-2.9
	v-1.7c0-1.6-1.3-2.9-2.9-2.9H147.1z"/>
<path class="st0" d="M214,22v32.7c-18.7,4.9-37.9-6.3-42.9-25c-0.8-2.9-1.2-5.9-1.2-8.9c0-1,0-1.9,0.1-2.8h19.3
	c3.1,0,5.6-2.5,5.6-5.6c0-0.7-0.1-1.5-0.4-2.1h7.6C208.6,10.2,214,15.5,214,22C214,22,214,22,214,22z"/>
<path class="st3" d="M161.4,182.1c0,0.7,0,1.4-0.1,2h-17.6c-6.5,0-11.8-5.3-11.8-11.8c0,0,0,0,0,0v-16.1
	c14.3-1.9,27.4,8.2,29.3,22.5C161.3,179.8,161.4,180.9,161.4,182.1L161.4,182.1z"/>
<path class="st3" d="M19.7,153.9c1,0.5,2.2,0,2.7-1L38.2,117c1-2.3,0-5-2.3-6c-1.1-0.5-2.3-0.5-3.5-0.1h0c-1,0.4-1.8,1.1-2.3,2
	c-0.1,0.1-0.2,0.3-0.2,0.4l-15.8,35.9c-0.5,1,0,2.2,1,2.7c0,0,0,0,0,0L19.7,153.9z"/>
<path class="st4" d="M37.6,131.7l-15.7-3.5l3.9-10.2c1.4-5.2,6.3-8.6,11.6-8l0.2,0L37.6,131.7z"/>
<path class="st3" d="M69.2,154.4c-0.9,0-1.8-0.6-2.2-1.4l-15.8-35.9c-1.1-2.5,0-5.3,2.5-6.4c2.3-1,4.9-0.1,6.2,2v0
	c0.1,0.2,0.2,0.3,0.2,0.5L75.9,149c0.5,1.2,0,2.6-1.2,3.1l-4.7,2.1l0,0C69.7,154.3,69.4,154.4,69.2,154.4z"/>
<path class="st3" d="M47.3,142.1c-1.1,0-2,0.9-2,2v41.7c0,1.1,0.9,2,2,2h5c1.1,0,2-0.9,2-2v-41.7c0-1.1-0.9-2-2-2H47.3z"/>
<path class="st3" d="M37.4,142.1c-1.1,0-2,0.9-2,2v41.7c0,1.1,0.9,2,2,2h5c1.1,0,2-0.9,2-2v-41.7c0-1.1-0.9-2-2-2H37.4z"/>
<circle class="st3" cx="44.7" cy="81.1" r="17.3"/>
<path class="st4" d="M50.4,88.4c1.1,0,2.5-0.1,3.6-0.9c0.6-0.5,1-1.2,1.1-2.1c0-0.6-0.2-1.1-0.6-1.5c-0.6-0.5-1.4-0.6-2.3-0.3
	l0.9-6.7l-0.7-0.1l-1.1,7.9l0.6-0.3c0.7-0.3,1.5-0.5,2.1,0c0.3,0.2,0.4,0.6,0.4,1c0,0.6-0.3,1.2-0.8,1.5c-0.8,0.6-1.9,0.7-3.2,0.7
	L50.4,88.4z"/>
<rect x="56.5" y="77.5" class="st4" width="3.7" height="0.7"/>
<rect x="44.9" y="77.5" class="st4" width="3.7" height="0.7"/>
<path class="st4" d="M61.8,154.6l-6.2-45.4c-0.1-1-1-1.8-2-1.8h-4.7c0-0.1,0-0.2,0-0.3v-1.7c0-1.1-0.9-2-2-2h-4.1c-1.1,0-2,0.9-2,2
	v1.7c0,0.1,0,0.2,0,0.3h-4.7c-1,0-1.9,0.8-2,1.8l-6.2,45.4c-0.2,1.1,0.6,2.1,1.7,2.3c0.1,0,0.2,0,0.3,0h29.9c1.1,0,2-0.9,2-2
	C61.8,154.8,61.8,154.7,61.8,154.6z"/>
<path class="st4" d="M52.1,131.7V110l0.2,0c5.3-0.6,10.3,2.8,11.6,8l3.9,10.2L52.1,131.7z"/>
<path class="st4" d="M43.8,98.9l-12-4.6c-2-0.8-3.9-1.5-5.9-2.3c-0.8-0.3-1.6-0.7-2.3-1.3c-0.6-0.6-1-1.4-1.1-2.2
	c-0.4-1.8-0.3-3.7-0.3-5.5c0-2,0.2-3.9,0.5-5.8c0.5-3.6,1.7-7.1,3.6-10.3c3.4-5.5,9.1-9.6,15.8-9.3c3.1,0.2,6.2,1.3,8.5,3.4
	c0.2,0.3,0.5,0.5,0.8,0.8c0.2,0.1,0.4,0.1,0.6,0c0.3,0,0.6,0,0.8,0c1,0,1.9,0,2.9,0.1c1.8,0.2,3.4,0.9,4.8,2c1.1,1,2.1,2.4,2.2,3.9
	c0.1,1.4-0.5,2.8-1.6,3.8c-1.4,1.2-3.5,0.8-5.2,0.7l-6.3-0.3l-3.2-0.2c-0.7,0-0.7,1,0,1l8.4,0.4c1.4,0.1,2.8,0.2,4.1,0.2
	c1,0,2-0.4,2.8-1.1c1.5-1.3,2.1-3.3,1.7-5.3c-0.4-2.1-2-3.8-3.8-4.8c-2.5-1.4-5.4-1.5-8.2-1.3l0.4,0.1c-3.1-3.4-7.9-4.8-12.4-4.3
	c-4.7,0.5-9,3.2-12,6.8c-3.4,4-5.2,9.1-5.9,14.2c-0.4,2.8-0.5,5.6-0.4,8.4c0,1.2,0.2,2.5,0.6,3.6c0.5,1.1,1.3,2.1,2.4,2.6
	c1.3,0.6,2.6,1.1,3.9,1.6l4.4,1.7l8.7,3.4l2.2,0.9C44.2,100.1,44.4,99.2,43.8,98.9z"/>
<path class="st4" d="M25,64.4c-2.9,0-5.3-2.4-5.3-5.3c0-2.9,2.4-5.3,5.3-5.3s5.3,2.4,5.3,5.3l0,0C30.3,62,27.9,64.4,25,64.4z
	 M25,54.9c-2.3,0-4.2,1.9-4.2,4.2s1.9,4.2,4.2,4.2s4.2-1.9,4.2-4.2C29.3,56.8,27.4,54.9,25,54.9z"/>
<rect x="95.7" y="91.1" transform="matrix(0.6075 -0.7943 0.7943 0.6075 -37.6966 120.2307)" class="st0" width="14.3" height="14.3"/>
<path class="st0" d="M48.6,19.3c3.6,0,7.1,1.7,9.2,4.6l6.6-8.7L44.5,0L29.3,19.9l8.6,6.6C39.6,22.1,43.9,19.3,48.6,19.3z"/>
<path class="st1" d="M239.7,188.4H0.3c-0.2,0-0.3-0.2-0.3-0.3s0.2-0.3,0.3-0.3h239.3c0.2,0,0.3,0.2,0.3,0.3S239.8,188.4,239.7,188.4
	z"/>
<path class="st3" d="M181.2,132.2h-24.4c-1.9,0-3.4-1.5-3.4-3.4v-1.7c0-1.9,1.5-3.4,3.4-3.4h24.4c1.9,0,3.4,1.5,3.4,3.4v1.7
	C184.6,130.7,183.1,132.2,181.2,132.2z"/>
<path class="st1" d="M183.8,128.9h-24.4c-2,0-3.6-1.6-3.6-3.6v-1.7c0-2,1.6-3.6,3.6-3.6h24.4c2,0,3.6,1.6,3.6,3.6v1.7
	C187.4,127.3,185.8,128.9,183.8,128.9z M159.5,120.8c-1.6,0-2.9,1.3-2.9,2.9v1.7c0,1.6,1.3,2.9,2.9,2.9h24.4c1.6,0,2.9-1.3,2.9-2.9
	v-1.7c0-1.6-1.3-2.9-2.9-2.9H159.5z"/>
</svg>
