<?xml version="1.0" encoding="utf-8"?>
<!-- Generator: Adobe Illustrator 26.3.1, SVG Export Plug-In . SVG Version: 6.00 Build 0)  -->
<svg version="1.1" id="Layer_1" xmlns="http://www.w3.org/2000/svg" xmlns:xlink="http://www.w3.org/1999/xlink" x="0px" y="0px"
	 viewBox="0 0 240 173.6" style="enable-background:new 0 0 240 173.6;" xml:space="preserve">
<style type="text/css">
	.st0{fill:#E6E6E6;}
	.st1{fill:#FFB6B6;}
	.st2{fill:#2F2E41;}
	.st3{fill:#F2F2F2;}
	.st4{fill:#3F3D56;}
	.st5{opacity:0.1;enable-background:new    ;}
	.st6{fill:#A0616A;}
	.st7{fill:#6C63FF;}
</style>
<path class="st0" d="M240,95.6L240,95.6c0,0.2-0.1,0.3-0.3,0.3H0v-0.6h239.7C239.9,95.3,240,95.4,240,95.6z"/>
<g>
	<circle class="st1" cx="78.8" cy="12.4" r="9.1"/>
	<path class="st0" d="M83.6,23.3l-11.9,3.4L70,30.6l-3.8,18.3v29c0,0-4.7,10.2-2.1,19.2c2.7,9.6,12.3-1.7,19.6-0.4
		c7.2,1.3,18.7,2.6,18.7,2.6l-6.8-31.1l-1.7-37.9L83.6,23.3L83.6,23.3z"/>
	<path class="st2" d="M81.4,15.3l-1.8-0.9c0,0-0.5-4.1-1.4-5.1C77.2,8.4,77.2,8,77.2,8l1.4-1.8c0,0-6.9,3.7-8.3,1.4
		c-1.4-2.3,0.5-3.2,0.5-3.2l-2.3-1.8c0,0,2.8,1.8,3.2,0.5s3.2-2.3,3.2-2.3s6,1.4,5.5,0c-0.5-1.4,1.4,0,1.8,0.5s4.6,5.1,5.1,4.6
		c0.5-0.5,2.8,0.9,2.3,1.4c-0.5,0.5-0.5,0.9,0,1.4c0.5,0.5,3.2,5.5,0.9,7.4s-5.5,4.1-5.1,6C86,23.6,85.5,15.8,81.4,15.3L81.4,15.3z"
		/>
	<g>
		<path id="uuid-9ec032c4-1053-42c3-862e-530ead60710b-2559" class="st1" d="M36.7,38.1c-2.3-2-3.2-4.8-1.9-6.3
			c1.3-1.5,4.2-1.1,6.5,1c0.9,0.8,1.7,1.8,2.2,2.9l9.7,8.6l-4.1,4.5l-9.2-9C38.7,39.5,37.6,39,36.7,38.1L36.7,38.1z"/>
		<path class="st0" d="M70.1,30.7l6.4-0.6L82.1,57c1.1,5.1-2.3,10.1-7.4,11.1l-4.6,0.8l-29.5-26l4.3-7.2l21.7,13.6
			C66.7,49.4,70.1,30.7,70.1,30.7z"/>
	</g>
	<g>
		<path class="st1" d="M55.8,150.1c0,0-5.1,9.5-4.7,9.1c0.4-0.4,6.5,1.8,6.5,1.8l3.6-9.5L55.8,150.1z"/>
		<path class="st1" d="M48.2,83.9c0,0-2.6,10.4-2.3,10c0.3-0.4,6.8,0.2,6.8,0.2L53.9,84L48.2,83.9L48.2,83.9z"/>
		<path class="st2" d="M93.6,82.2c-11.5,1.6-21.9,0.2-30.4-6.4c0,0-6.2,20.7,5.1,22.9s23.8-1.6,25.3-5.2
			C95,89.8,93.6,82.2,93.6,82.2z"/>
		<polygon class="st2" points="72.1,88.7 59.6,118.3 53.8,152.5 61.4,154.3 75.1,122.8 93.6,92.7 		"/>
		<path class="st2" d="M70.5,80.3c0,0-2.9-22.5-8.4-24c-2.7-0.7-5.1-0.6-7-0.4c-1.9,0.3-3.4,1.7-3.7,3.5l-5,28.2h7l2.3-7.6l6,10.5
			L70.5,80.3L70.5,80.3z"/>
		<path class="st2" d="M52.7,91.2l-6.9-0.7l-1.1,4c0,0-11.3,10.2-5.5,10.9c5.8,0.7,11.3-3.3,11.3-3.3l8-4.6c0,0-3.1-8.2-5.3-8.2
			S52.7,91.2,52.7,91.2z"/>
		<path class="st2" d="M56.3,159.4l-6.9-0.7l-1.1,4c0,0-11.3,10.2-5.5,10.9c5.8,0.7,11.3-3.3,11.3-3.3l8-4.6c0,0-0.5-8.6-2.7-8.6
			S56.3,159.4,56.3,159.4L56.3,159.4z"/>
	</g>
	<g>
		<path id="uuid-0c2c35cf-ee7e-4b84-8f52-274d32364181-2560" class="st1" d="M91.4,104.3c-0.8,2.9-3,4.8-4.8,4.2
			c-1.8-0.5-2.6-3.3-1.8-6.2c0.3-1.1,0.9-2.2,1.7-3.1l3.7-12.1l5.6,1.9l-4.2,11.7C91.8,102,91.7,103.2,91.4,104.3L91.4,104.3z"/>
		<path class="st0" d="M95.3,30.2l-2.9-0.8v0c-2.8,5.5-4,11.7-3.4,17.8l1.5,17.2l-4.8,30.2L95,97l7.4-37.9L95.3,30.2L95.3,30.2z"/>
	</g>
</g>
<g>
	<path class="st3" d="M38,77.4c-0.1-0.4-1.1-0.2-1.2-0.6c-0.1-0.4,0.8-0.6,1.6-1.6c0.1-0.2,0.9-1.3,0.6-1.8
		c-0.6-0.9-4.7,1.3-5.7,0.1c-0.2-0.3-0.3-0.7-1-1.6c-0.3-0.3-0.4-0.5-0.6-0.5c-0.3,0-0.4,0.4-0.8,1c-0.7,1-0.9,0.8-1.3,1.6
		c-0.3,0.6-0.4,0.9-0.6,1c-0.3,0-0.5-0.7-0.9-0.7c-0.4,0-0.8,0.7-1,1.2c-0.4,1-0.1,1.8-0.1,2.6c0.1,0.9-0.1,2.1-1,3.8L17.1,96
		c1.9-2.9,7.3-10.7,9.5-13.6c0.6-0.8,1.3-1.7,2.3-1.8c1-0.2,2.2,0.3,3.9,0.3c0.2,0,0.8,0,0.9-0.3c0.1-0.2-0.2-0.5-0.1-0.7
		c0.1-0.3,0.7-0.2,1.6-0.4c0.6-0.1,1-0.4,1.3-0.6C36.7,78.8,38.2,77.9,38,77.4C38,77.4,38,77.4,38,77.4z"/>
	<path class="st3" d="M14.8,80.7c-0.2-0.1-0.4,0.5-0.6,0.4c-0.2-0.1-0.1-0.6-0.4-1.2c-0.1-0.1-0.4-0.8-0.7-0.8
		c-0.6,0-0.7,2.7-1.6,2.8c-0.2,0-0.5-0.1-1.1,0c-0.2,0-0.4,0.1-0.4,0.2c-0.1,0.1,0.1,0.3,0.3,0.7c0.3,0.6,0.1,0.7,0.4,1.1
		c0.2,0.3,0.4,0.5,0.3,0.6c-0.1,0.2-0.5,0-0.6,0.2c-0.1,0.2,0.1,0.6,0.3,0.9c0.4,0.5,0.9,0.6,1.3,0.8c0.4,0.2,1,0.7,1.6,1.6l4.4,8.4
		c-0.9-1.8-3.2-6.7-3.9-8.6c-0.2-0.5-0.4-1.1-0.2-1.7c0.2-0.5,0.8-1,1.3-1.8c0.1-0.1,0.2-0.4,0.1-0.5c-0.1-0.1-0.3,0-0.4-0.2
		c-0.1-0.2,0.1-0.4,0.3-0.9c0.1-0.3,0.1-0.6,0.1-0.8C15.1,81.8,15.1,80.8,14.8,80.7L14.8,80.7L14.8,80.7z"/>
	<path class="st3" d="M19.2,82.7l0.1-1.3l0.1-0.1c0.4-0.4,0.6-0.8,0.7-1.2c0-0.1,0-0.1,0-0.2c0-0.3,0.1-0.6,0.4-0.9
		c0.1-0.2,0.5-0.6,0.9-0.5c0.1,0,0.2,0.1,0.2,0.2c0,0,0,0,0,0c0.2-0.2,0.3-0.2,0.4-0.3c0.1,0,0.2-0.1,0.3-0.2
		c0.1-0.1,0.1-0.1,0.2-0.1c0.1-0.1,0.3-0.3,0.5-0.2c0.2,0.1,0.3,0.3,0.4,0.5c0.1,0.3,0.1,0.5,0.2,0.6c0,0,0,0.1,0,0.1
		c0.1,0.1,0.7,0.2,1,0.2c0.6,0,1.1,0.1,1.2,0.5c0.1,0.3-0.1,0.6-0.6,0.9c-0.1,0.1-0.3,0.2-0.4,0.2c0.1,0.1,0.1,0.2,0.1,0.3l0,0
		c0,0.3-0.3,0.6-1,0.7c-0.2,0-0.4,0.1-0.7,0.1c-0.1,0-0.3,0-0.4,0c0,0.1,0,0.1-0.1,0.2c-0.1,0.2-0.4,0.2-0.7,0.1
		c-0.4-0.1-0.6-0.2-0.9-0.3c-0.2-0.1-0.4-0.2-0.6-0.2c-0.3,0-0.6,0.1-0.9,0.4L19.2,82.7L19.2,82.7L19.2,82.7z"/>
	<path class="st3" d="M21.5,75.5l-1.3,0.2l-0.1-0.1c-0.5-0.3-0.9-0.4-1.3-0.4c-0.1,0-0.1,0-0.2,0c-0.3,0-0.6,0-1-0.1
		c-0.2-0.1-0.7-0.3-0.7-0.7c0-0.1,0.1-0.2,0.1-0.3c0,0,0,0,0,0c-0.2-0.1-0.3-0.2-0.4-0.3c-0.1-0.1-0.1-0.1-0.3-0.3
		c-0.1-0.1-0.1-0.1-0.2-0.1c-0.2-0.1-0.3-0.2-0.3-0.5c0-0.3,0.2-0.4,0.3-0.5c0.2-0.2,0.4-0.2,0.5-0.3c0,0,0.1,0,0.1-0.1
		c0.1-0.1,0-0.8-0.1-1c-0.1-0.6-0.2-1.1,0.1-1.3c0.3-0.2,0.6-0.1,1.1,0.3c0.1,0.1,0.3,0.2,0.3,0.3c0.1-0.1,0.1-0.2,0.3-0.2l0,0
		c0.3-0.1,0.6,0.2,0.9,0.8c0.1,0.1,0.2,0.3,0.2,0.6c0,0.1,0,0.2,0,0.4c0.1,0,0.1,0,0.2,0c0.2,0.1,0.3,0.3,0.3,0.6
		c0,0.4-0.1,0.7-0.1,0.9c0,0.2-0.1,0.4-0.1,0.6c0,0.3,0.3,0.5,0.6,0.8L21.5,75.5L21.5,75.5L21.5,75.5z"/>
	<path class="st3" d="M21.6,71.7l0.1-1.3l0.1-0.1c0.4-0.4,0.6-0.8,0.7-1.2c0-0.1,0-0.1,0-0.2c0-0.3,0.1-0.6,0.4-0.9
		c0.1-0.2,0.5-0.6,0.9-0.5c0.1,0,0.2,0.1,0.2,0.2c0,0,0,0,0,0c0.2-0.2,0.3-0.2,0.4-0.3c0.1,0,0.2-0.1,0.3-0.2
		c0.1-0.1,0.1-0.1,0.2-0.1c0.1-0.1,0.3-0.3,0.5-0.2c0.2,0.1,0.3,0.3,0.4,0.5c0.1,0.3,0.1,0.5,0.2,0.6c0,0,0,0.1,0,0.1
		c0.1,0.1,0.7,0.2,1,0.2c0.6,0,1.1,0.1,1.2,0.5c0.1,0.3-0.1,0.6-0.6,0.9c-0.1,0.1-0.3,0.2-0.4,0.2c0.1,0.1,0.1,0.2,0.1,0.3l0,0
		c0,0.3-0.3,0.6-1,0.7c-0.2,0-0.4,0.1-0.7,0.1c-0.1,0-0.3,0-0.4,0c0,0.1,0,0.1-0.1,0.2c-0.1,0.2-0.4,0.2-0.7,0.1
		c-0.4-0.1-0.6-0.2-0.9-0.3c-0.2-0.1-0.4-0.2-0.6-0.2c-0.3,0-0.6,0.1-0.9,0.4L21.6,71.7L21.6,71.7L21.6,71.7z"/>
	<path class="st3" d="M17.5,96.1l-0.2-0.2l0-0.3l0,0.3l-0.3,0c0,0,0-0.1,0-0.2c0-0.6,0-2.4,0.2-5.1c0.2-1.9,0.5-3.8,0.9-5.8
		c0.4-1.9,0.8-3.3,1.1-4.5c0.3-0.9,0.5-1.7,0.7-2.5c0.7-2.1,1.3-4.1,1.7-6.4c0.1-0.5,0.3-1.6-0.1-2.8c-0.2-0.7-0.6-1.4-1.1-2
		l0.5-0.4c0.6,0.7,1,1.5,1.2,2.3c0.4,1.4,0.2,2.6,0.1,3.1c-0.4,2.3-1,4.4-1.7,6.5c-0.2,0.8-0.5,1.6-0.7,2.5
		c-0.3,1.1-0.7,2.5-1.1,4.4c-0.4,1.9-0.7,3.8-0.8,5.7c-0.2,2.7-0.2,4.4-0.2,5C17.6,95.9,17.6,96,17.5,96.1L17.5,96.1L17.5,96.1z"/>
	<path class="st3" d="M19.1,67.2C19.1,67.2,19,67.2,19.1,67.2c-0.6-0.2-1-0.6-1.3-1.3c-0.1-0.3-0.2-0.7-0.2-1.3c0-0.1-0.1-0.6,0-1.3
		c0-0.5,0.1-0.6,0.2-0.8c0.1-0.2,0.3-0.3,0.5-0.3c0-0.1,0-0.1,0.1-0.2c0.2-0.2,0.4-0.1,0.6-0.1c0.1,0,0.2,0.1,0.3,0.1
		c0.2,0,0.3,0,0.4,0c0.1,0,0.3-0.1,0.6-0.1c0.5,0,0.8,0.2,0.9,0.3c0.6,0.4,0.8,1,1.1,1.6c0,0.1,0.2,0.6,0.2,1.3c0,0.5,0,0.6-0.1,0.8
		c-0.1,0.3-0.4,0.4-0.9,0.7c-0.6,0.3-0.8,0.4-1.1,0.5C19.8,67.2,19.5,67.3,19.1,67.2L19.1,67.2L19.1,67.2z"/>
</g>
<path class="st2" d="M162.4,14c0,0,3.5,2,2.3,4s-2.7,4.8-1.6,5.6c1.1,0.9,2.9,4.7,2.9,4.7s7.6-1.1,6.9,4.8s-4.3,6.7-1.2,9.3
	c3.1,2.6-3.2,5.7-3.2,5.7s-4.3-1.3-5.3-5.5s0.9,3.1,0.3,3.7c-0.6,0.5-3,4-4.7-0.6c-1.7-4.6,0-6.3-2.3-9c-2.3-2.7-3.8-7.1-3.7-7.8
	s-2.6-7.7,1.5-10.4S162.4,14,162.4,14L162.4,14z"/>
<g>
	<path id="uuid-40eda929-ef4c-4923-ad7d-cda70967e632-2561" class="st1" d="M196.6,77.9c2,1.7,4.5,2,5.6,0.7
		c1.1-1.3,0.3-3.7-1.7-5.3c-0.8-0.7-1.7-1.2-2.8-1.4l-8.6-7l-3.2,4.1l8.8,6.4C195.1,76.4,195.8,77.2,196.6,77.9L196.6,77.9z"/>
	<path class="st4" d="M170.8,40c0,0-6.8-4.5-9-2.3c-2.2,2.2-1.7,7.8-1.7,7.8l17.7,20.7l14.1,8.9l3.8-5.9l-11.8-10.6L170.8,40
		L170.8,40z"/>
</g>
<polygon class="st1" points="160.8,30.2 163.3,38.9 149.8,38.9 154.3,28.2 "/>
<polygon class="st5" points="160.8,30.2 163.3,38.9 149.8,38.9 154.3,28.2 "/>
<g>
	<path id="uuid-c7296f43-523d-4c33-91d5-0d02a2c7186e-2562" class="st1" d="M131.5,94.6c-0.2,2.6,1,4.8,2.7,4.9
		c1.7,0.1,3.1-1.9,3.3-4.5c0.1-1-0.1-2.1-0.5-3.1l0.6-11.1l-5.2-0.2l0,10.9C131.8,92.5,131.5,93.6,131.5,94.6L131.5,94.6z"/>
	<path class="st4" d="M147.1,51.5c0,0-0.3-8.1-3.4-8.6c-3.1-0.5-7.3,3.2-7.3,3.2l-6.4,26.5l1,16.6l7-0.4l1.6-15.8L147.1,51.5z"/>
</g>
<path class="st1" d="M177.1,148.7c0,0,5.1,9.5,4.7,9.1c-0.4-0.4-6.5,1.8-6.5,1.8l-3.6-9.5L177.1,148.7z"/>
<path class="st1" d="M184.6,82.5c0,0,2.6,10.4,2.3,10c-0.3-0.4-6.8,0.2-6.8,0.2L179,82.5L184.6,82.5L184.6,82.5z"/>
<path class="st4" d="M164.4,36h-12.7l-13.8,9.5l-4,33.1l2.2,6.5l4,7.6c0,0-4-16.7,5.8-10.2c9.8,6.5,10.5,7.6,10.5,7.6l13.1-6.5
	l4.9-27.1l-3.6-14.9L164.4,36z"/>
<path class="st2" d="M139.3,80.7c11.5,1.6,21.9,0.2,30.4-6.4c0,0,6.2,20.7-5.1,22.9s-23.8-1.6-25.3-5.2
	C137.8,88.4,139.3,80.7,139.3,80.7z"/>
<polygon class="st2" points="160.8,87.3 173.3,116.8 179.1,151 171.5,152.8 157.8,121.4 139.3,91.3 "/>
<path class="st2" d="M162.4,78.8c0,0,2.9-22.5,8.4-24c2.7-0.7,5.1-0.6,7-0.4c1.9,0.3,3.4,1.7,3.7,3.5l5,28.2h-7l-2.3-7.6l-6,10.5
	L162.4,78.8z"/>
<path class="st2" d="M180.2,89.7l6.9-0.7l1.1,4c0,0,11.3,10.2,5.5,10.9c-5.8,0.7-11.3-3.3-11.3-3.3l-8-4.6c0,0,3.1-8.2,5.3-8.2
	S180.2,89.7,180.2,89.7L180.2,89.7z"/>
<path class="st2" d="M176.6,157.9l6.9-0.7l1.1,4c0,0,11.3,10.2,5.5,10.9s-11.3-3.3-11.3-3.3l-8-4.6c0,0,0.5-8.6,2.7-8.6
	S176.6,157.9,176.6,157.9L176.6,157.9z"/>
<circle class="st1" cx="157.6" cy="24" r="8.1"/>
<path class="st2" d="M160.8,14.9c0,0,1.4,3.8-0.8,4.6c-2.2,0.8-5.1,1.9-4.9,3.2c0.3,1.4-0.8,5.4-0.8,5.4s6.5,4.1,2.2,8.1
	c-4.3,4.1-7.6,2.4-6.9,6.3s-6.1,2.3-6.1,2.3s-2.4-3.8-0.5-7.6c1.9-3.8-1.4,3-2.2,3c-0.8,0-4.9,1.1-3.2-3.5s4.1-4.9,4.1-8.4
	s1.6-7.8,2.2-8.4s3-7.6,7.8-7C156.4,13.6,160.8,14.9,160.8,14.9L160.8,14.9z"/>
<path class="st6" d="M89.9,148.7c0,0-5.1,9.5-4.7,9.1s6.5,1.8,6.5,1.8l3.6-9.5L89.9,148.7L89.9,148.7z"/>
<path class="st2" d="M127.7,80.7c-11.5,1.6-21.9,0.2-30.4-6.4c0,0-6.2,20.7,5.1,22.9s23.8-1.6,25.3-5.2
	C129.1,88.4,127.7,80.7,127.7,80.7z"/>
<polygon class="st2" points="106.2,87.3 93.7,116.8 87.9,151 95.5,152.8 109.1,121.4 127.7,91.3 "/>
<path class="st2" d="M90.4,157.9l-6.9-0.7l-1.1,4c0,0-11.3,10.2-5.5,10.9c5.8,0.7,11.3-3.3,11.3-3.3l8-4.6c0,0-0.5-8.6-2.7-8.6
	S90.4,157.9,90.4,157.9L90.4,157.9z"/>
<path class="st6" d="M101.3,143.7c0,0-1.9,10.6-1.7,10.1c0.2-0.5,6.8-0.3,6.8-0.3l0.5-10.1L101.3,143.7L101.3,143.7z"/>
<polygon class="st2" points="98,80.2 95.2,112.2 100.2,146.5 108,145.9 111.3,111.8 119.6,77.4 "/>
<path class="st2" d="M104.7,152.3l-6.8,1.4l0.2,4.1c0,0-7.6,13.2-1.8,12.1c5.8-1.1,9.7-6.6,9.7-6.6l6.2-6.8c0,0-3.2-8-5.3-7.4
	C104.9,149.9,104.7,152.3,104.7,152.3L104.7,152.3z"/>
<path class="st2" d="M104.5,14c0,0-3.5,2-2.3,4c1.1,2,2.7,4.8,1.6,5.6c-1.1,0.9-2.9,4.7-2.9,4.7s-7.6-1.1-6.9,4.8s4.3,6.7,1.2,9.3
	c-3.1,2.6,3.2,5.7,3.2,5.7s4.3-1.3,5.3-5.5c1-4.1-0.9,3.1-0.3,3.7c0.6,0.5,3,4,4.7-0.6s0-6.3,2.3-9c2.3-2.7,3.8-7.1,3.7-7.8
	s2.6-7.7-1.5-10.4C108.7,15.8,104.5,14,104.5,14L104.5,14z"/>
<polygon class="st6" points="106.1,30.2 103.7,38.9 117.1,38.9 112.7,28.2 "/>
<polygon class="st5" points="106.1,30.2 103.7,38.9 117.1,38.9 112.7,28.2 "/>
<g>
	<path id="uuid-30591428-cd87-4ca8-90c0-8a5e265d7e31-2563" class="st6" d="M135.5,94.6c0.2,2.6-1,4.8-2.7,4.9
		c-1.7,0.1-3.1-1.9-3.3-4.5c-0.1-1,0.1-2.1,0.5-3.1l-0.6-11.1l5.2-0.2l0,10.9C135.1,92.5,135.4,93.6,135.5,94.6z"/>
	<path class="st7" d="M119.9,51.5c0,0,0.3-8.1,3.4-8.6c3.1-0.5,7.3,3.2,7.3,3.2l6.4,26.5l-1,16.6l-7-0.4L127.3,73L119.9,51.5z"/>
</g>
<path class="st7" d="M102.6,36h12.7l13.8,9.5l4,33.1l-2.2,6.5l-4,7.6c0,0,4-16.7-5.8-10.2c-0.1,0.1-0.2,0.1-0.3,0.2
	c-6.3,4.2-14.7,3.8-20.5-1.1l-4.7-3.9l2.5-12.7l-2-23.5L102.6,36L102.6,36z"/>
<g>
	<path id="uuid-53b096d6-03cc-438c-8f9a-f5acbbdd06bd-2564" class="st6" d="M70.8,77.4c-2,1.6-4.5,1.9-5.6,0.6S65,74.4,67,72.7
		c0.8-0.7,1.8-1.1,2.8-1.3l8.7-6.8l3.1,4.2L72.7,75C72.3,76,71.6,76.8,70.8,77.4L70.8,77.4z"/>
	<path class="st7" d="M97.2,39.9c0,0,6.8-4.4,9-2.2c2.2,2.3,1.6,7.8,1.6,7.8L89.7,65.9l-14.2,8.7l-3.7-6l12-10.4L97.2,39.9
		L97.2,39.9z"/>
</g>
<circle class="st6" cx="109.3" cy="24" r="8.1"/>
<path class="st2" d="M105.3,18.5c0,0-1.2-4,0.8-4s10,0.4,10.8,1.2c0.8,0.8,10.2,8.8,4.6,15.2c-5.6,6.4,0,9.5,0,9.5s4.1,9.6,0.1,10.4
	c-4,0.8-20.3-3.8-16.3-11.2C109.6,31.6,111.6,18.9,105.3,18.5L105.3,18.5z"/>
<g>
	<path class="st3" d="M238,77.8c-0.1-0.4-1.1-0.2-1.2-0.6c-0.1-0.4,0.8-0.6,1.6-1.6c0.1-0.2,0.9-1.3,0.6-1.8
		c-0.6-0.9-4.7,1.3-5.7,0.1c-0.2-0.3-0.3-0.7-1-1.6c-0.3-0.3-0.4-0.5-0.6-0.5c-0.3,0-0.4,0.4-0.8,1c-0.7,1-0.9,0.8-1.3,1.6
		c-0.3,0.6-0.4,0.9-0.6,1c-0.3,0-0.5-0.7-0.9-0.7c-0.4,0-0.8,0.7-1,1.2c-0.4,1-0.1,1.8-0.1,2.6c0.1,0.9-0.1,2.1-1,3.8l-8.9,14.1
		c1.9-2.9,7.3-10.7,9.5-13.6c0.6-0.8,1.3-1.7,2.3-1.8c1-0.2,2.2,0.3,3.9,0.3c0.2,0,0.8,0,0.9-0.3c0.1-0.2-0.2-0.5-0.1-0.7
		c0.1-0.3,0.7-0.2,1.6-0.4c0.6-0.1,1-0.4,1.3-0.6C236.7,79.2,238.2,78.3,238,77.8L238,77.8L238,77.8z"/>
	<path class="st3" d="M214.8,81.1c-0.2-0.1-0.4,0.5-0.6,0.4c-0.2-0.1-0.1-0.6-0.4-1.2c-0.1-0.1-0.4-0.8-0.7-0.8
		c-0.6,0-0.7,2.7-1.6,2.8c-0.2,0-0.5-0.1-1.1,0c-0.2,0-0.4,0.1-0.4,0.2c-0.1,0.1,0.1,0.3,0.3,0.7c0.3,0.6,0.1,0.7,0.4,1.1
		c0.2,0.3,0.4,0.5,0.3,0.6c-0.1,0.2-0.5,0-0.6,0.2c-0.1,0.2,0.1,0.6,0.3,0.9c0.4,0.5,0.9,0.6,1.3,0.8c0.4,0.2,1,0.7,1.6,1.6l4.4,8.4
		c-0.9-1.8-3.2-6.7-3.9-8.6c-0.2-0.5-0.4-1.1-0.2-1.7c0.2-0.5,0.8-1,1.3-1.8c0.1-0.1,0.2-0.4,0.1-0.5c-0.1-0.1-0.3,0-0.4-0.2
		c-0.1-0.2,0.1-0.4,0.3-0.9c0.1-0.3,0.1-0.6,0.1-0.8C215.1,82.1,215.1,81.1,214.8,81.1L214.8,81.1L214.8,81.1z"/>
	<path class="st3" d="M219.2,83.1l0.1-1.3l0.1-0.1c0.4-0.4,0.6-0.8,0.7-1.2c0-0.1,0-0.1,0-0.2c0-0.3,0.1-0.6,0.4-0.9
		c0.1-0.2,0.5-0.6,0.9-0.5c0.1,0,0.2,0.1,0.2,0.2c0,0,0,0,0,0c0.2-0.2,0.3-0.2,0.4-0.3c0.1,0,0.2-0.1,0.3-0.2
		c0.1-0.1,0.1-0.1,0.2-0.1c0.1-0.1,0.3-0.3,0.5-0.2c0.2,0.1,0.3,0.3,0.4,0.5c0.1,0.3,0.1,0.5,0.2,0.6c0,0,0,0.1,0,0.1
		c0.1,0.1,0.7,0.2,1,0.2c0.6,0,1.1,0.1,1.2,0.5c0.1,0.3-0.1,0.6-0.6,0.9c-0.1,0.1-0.3,0.2-0.4,0.2c0.1,0.1,0.1,0.2,0.1,0.3l0,0
		c0,0.3-0.3,0.6-1,0.7c-0.2,0-0.4,0.1-0.7,0.1c-0.1,0-0.3,0-0.4,0c0,0.1,0,0.1-0.1,0.2c-0.1,0.2-0.4,0.2-0.7,0.1
		c-0.4-0.1-0.6-0.2-0.9-0.3c-0.2-0.1-0.4-0.2-0.6-0.2c-0.3,0-0.6,0.1-0.9,0.4L219.2,83.1L219.2,83.1L219.2,83.1z"/>
	<path class="st3" d="M221.5,75.9l-1.3,0.2l-0.1-0.1c-0.5-0.3-0.9-0.4-1.3-0.4c-0.1,0-0.1,0-0.2,0c-0.3,0-0.6,0-1-0.1
		c-0.2-0.1-0.7-0.3-0.7-0.7c0-0.1,0.1-0.2,0.1-0.3c0,0,0,0,0,0c-0.2-0.1-0.3-0.2-0.4-0.3c-0.1-0.1-0.1-0.1-0.3-0.3
		c-0.1-0.1-0.1-0.1-0.2-0.1c-0.2-0.1-0.3-0.2-0.3-0.5c0-0.3,0.2-0.4,0.3-0.5c0.2-0.2,0.4-0.2,0.5-0.3c0,0,0.1,0,0.1-0.1
		c0.1-0.1,0-0.8-0.1-1c-0.1-0.6-0.2-1.1,0.1-1.3c0.3-0.2,0.6-0.1,1.1,0.3c0.1,0.1,0.3,0.2,0.3,0.3c0.1-0.1,0.1-0.2,0.3-0.2l0,0
		c0.3-0.1,0.6,0.2,0.9,0.8c0.1,0.1,0.2,0.3,0.2,0.6c0,0.1,0,0.2,0,0.4c0.1,0,0.1,0,0.2,0c0.2,0.1,0.3,0.3,0.3,0.6
		c0,0.4-0.1,0.7-0.1,0.9c0,0.2-0.1,0.4-0.1,0.6c0,0.3,0.3,0.5,0.6,0.8L221.5,75.9L221.5,75.9L221.5,75.9z"/>
	<path class="st3" d="M221.6,72.1l0.1-1.3l0.1-0.1c0.4-0.4,0.6-0.8,0.7-1.2c0-0.1,0-0.1,0-0.2c0-0.3,0.1-0.6,0.4-0.9
		c0.1-0.2,0.5-0.6,0.9-0.5c0.1,0,0.2,0.1,0.2,0.2c0,0,0,0,0,0c0.2-0.2,0.3-0.2,0.4-0.3c0.1,0,0.2-0.1,0.3-0.2
		c0.1-0.1,0.1-0.1,0.2-0.1c0.1-0.1,0.3-0.3,0.5-0.2c0.2,0.1,0.3,0.3,0.4,0.5c0.1,0.3,0.1,0.5,0.2,0.6c0,0,0,0.1,0,0.1
		c0.1,0.1,0.7,0.2,1,0.2c0.6,0,1.1,0.1,1.2,0.5c0.1,0.3-0.1,0.6-0.6,0.9c-0.1,0.1-0.3,0.2-0.4,0.2c0.1,0.1,0.1,0.2,0.1,0.3l0,0
		c0,0.3-0.3,0.6-1,0.7c-0.2,0-0.4,0.1-0.7,0.1c-0.1,0-0.3,0-0.4,0c0,0.1,0,0.1-0.1,0.2c-0.1,0.2-0.4,0.2-0.7,0.1
		c-0.4-0.1-0.6-0.2-0.9-0.3c-0.2-0.1-0.4-0.2-0.6-0.2c-0.3,0-0.6,0.1-0.9,0.4L221.6,72.1L221.6,72.1L221.6,72.1z"/>
	<path class="st3" d="M217.5,96.4l-0.2-0.2l0-0.3l0,0.3l-0.3,0c0,0,0-0.1,0-0.2c0-0.6,0-2.4,0.2-5.1c0.2-1.9,0.5-3.8,0.9-5.8
		c0.4-1.9,0.8-3.3,1.1-4.5c0.3-0.9,0.5-1.7,0.7-2.5c0.7-2.1,1.3-4.1,1.7-6.4c0.1-0.5,0.3-1.6-0.1-2.8c-0.2-0.7-0.6-1.4-1.1-2
		l0.5-0.4c0.6,0.7,1,1.5,1.2,2.3c0.4,1.4,0.2,2.6,0.1,3.1c-0.4,2.3-1,4.4-1.7,6.5c-0.2,0.8-0.5,1.6-0.7,2.5
		c-0.3,1.1-0.7,2.5-1.1,4.4c-0.4,1.9-0.7,3.8-0.8,5.7c-0.2,2.7-0.2,4.4-0.2,5C217.6,96.3,217.6,96.3,217.5,96.4L217.5,96.4
		L217.5,96.4z"/>
	<path class="st3" d="M219.1,67.5C219.1,67.5,219,67.5,219.1,67.5c-0.6-0.2-1-0.6-1.3-1.3c-0.1-0.3-0.2-0.7-0.2-1.3
		c0-0.1-0.1-0.6,0-1.3c0-0.5,0.1-0.6,0.2-0.8c0.1-0.2,0.3-0.3,0.5-0.3c0-0.1,0-0.1,0.1-0.2c0.2-0.2,0.4-0.1,0.6-0.1
		c0.1,0,0.2,0.1,0.3,0.1c0.2,0,0.3,0,0.4,0c0.1,0,0.3-0.1,0.6-0.1c0.5,0,0.8,0.2,0.9,0.3c0.6,0.4,0.8,1,1.1,1.6
		c0,0.1,0.2,0.6,0.2,1.3c0,0.5,0,0.6-0.1,0.8c-0.1,0.3-0.4,0.4-0.9,0.7c-0.6,0.3-0.8,0.4-1.1,0.5C219.8,67.5,219.5,67.6,219.1,67.5
		L219.1,67.5L219.1,67.5z"/>
</g>
<g>
	<path class="st7" d="M60.8,74.4l-0.4-12.9c0-0.2,0.1-0.4,0.2-0.6c0.2-0.1,0.4-0.2,0.6-0.2l10.3,0.6c0.2,0,0.4,0.1,0.5,0.3
		c0.1,0.2,0.2,0.4,0.2,0.6L70.4,75c-0.1,0.4-0.4,0.7-0.8,0.6l-8.1-0.5c-0.1,0-0.2,0-0.2-0.1C61,75,60.8,74.7,60.8,74.4z"/>
	<path class="st4" d="M60.4,60.3c0.1,0,0.3,0,0.6-0.1c-0.1-0.1-0.1-0.3-0.1-0.4l0.2-1c0-0.3,0.3-0.4,0.5-0.5c1.5-0.2,6.7-0.8,10,0.7
		c0.2,0.1,0.3,0.3,0.3,0.5l0,1c0,0.1,0,0.2-0.1,0.3c0.3,0.1,0.5,0.2,0.8,0.2c0.2,0.1,0.3,0.2,0.3,0.4l0.1,0.4c0,0.3-0.2,0.5-0.5,0.5
		l-12.3-0.8c-0.3,0-0.5-0.3-0.4-0.6l0.1-0.6C60,60.4,60.2,60.3,60.4,60.3L60.4,60.3z"/>
</g>
<g>
	<path class="st7" d="M29.9,37.7l-0.4-12.9c0-0.2,0.1-0.4,0.2-0.6c0.2-0.1,0.4-0.2,0.6-0.2l10.3,0.6c0.2,0,0.4,0.1,0.5,0.3
		c0.1,0.2,0.2,0.4,0.2,0.6l-1.7,12.9c-0.1,0.4-0.4,0.7-0.8,0.6l-8.1-0.5c-0.1,0-0.2,0-0.2-0.1C30.1,38.3,29.9,38,29.9,37.7
		L29.9,37.7z"/>
	<path class="st4" d="M29.5,23.6c0.1,0,0.3,0,0.6-0.1C30,23.4,30,23.2,30,23.1l0.2-1c0-0.3,0.3-0.4,0.5-0.5c1.5-0.2,6.7-0.8,10,0.7
		c0.2,0.1,0.3,0.3,0.3,0.5l0,1c0,0.1,0,0.2-0.1,0.3c0.3,0.1,0.5,0.2,0.8,0.2c0.2,0.1,0.3,0.2,0.3,0.4l0.1,0.4c0,0.3-0.2,0.5-0.5,0.5
		L29.4,25c-0.3,0-0.5-0.3-0.4-0.6l0.1-0.6C29.1,23.7,29.3,23.6,29.5,23.6z"/>
</g>
<g>
	<path class="st7" d="M191,77.7l-0.4-12.9c0-0.2,0.1-0.4,0.2-0.6c0.2-0.1,0.4-0.2,0.6-0.2l10.3,0.6c0.2,0,0.4,0.1,0.5,0.3
		c0.1,0.2,0.2,0.4,0.2,0.6l-1.7,12.9c-0.1,0.4-0.4,0.7-0.8,0.6l-8.1-0.5c-0.1,0-0.2,0-0.2-0.1C191.2,78.3,191,78,191,77.7z"/>
	<path class="st4" d="M190.6,63.5c0.1,0,0.3,0,0.6-0.1c-0.1-0.1-0.1-0.3-0.1-0.4l0.2-1c0-0.3,0.3-0.4,0.5-0.5
		c1.5-0.2,6.7-0.8,10,0.7c0.2,0.1,0.3,0.3,0.3,0.5l0,1c0,0.1,0,0.2-0.1,0.3c0.3,0.1,0.5,0.2,0.8,0.2c0.2,0.1,0.3,0.2,0.3,0.4
		l0.1,0.4c0,0.3-0.2,0.5-0.5,0.5L190.4,65c-0.3,0-0.5-0.3-0.4-0.6l0.1-0.6C190.2,63.7,190.4,63.6,190.6,63.5L190.6,63.5z"/>
</g>
</svg>
